<svg width="47" height="47" viewBox="0 0 47 47" fill="none" xmlns="http://www.w3.org/2000/svg">
<path d="M44.4954 31.5729C48.9539 19.9775 43.1683 6.96317 31.5729 2.50463C19.9775 -1.95391 6.96317 3.83168 2.50463 15.4271C-1.95391 27.0225 3.83168 40.0368 15.4271 44.4954C27.0225 48.9539 40.0368 43.1683 44.4954 31.5729Z" fill="#FFFFEA"/>
<path d="M34.0893 23.4981C34.0893 29.3453 29.3494 34.0887 23.4988 34.0887C17.6516 34.0887 12.9082 29.3487 12.9082 23.4981C12.9082 17.6509 17.6482 12.911 23.4988 12.911C29.346 12.9075 34.0893 17.6509 34.0893 23.4981Z" fill="#FFD379"/>
<path d="M23.4988 34.0887C29.346 34.0887 34.0893 29.3487 34.0893 23.4981C34.0893 22.5549 33.9561 21.6459 33.7237 20.7779C29.1819 21.6185 24.8965 22.8249 21.0109 24.4208C18.4581 23.6348 15.7583 23.0129 12.9595 22.5378C12.9321 22.8557 12.9116 23.1769 12.9116 23.5015C12.9116 29.3453 17.6516 34.0887 23.4988 34.0887Z" fill="#D0DB58"/>
<path d="M34.0894 23.4981C34.0894 29.3453 29.3494 34.0887 23.4988 34.0887C17.6516 34.0887 12.9082 29.3487 12.9082 23.4981C12.9082 17.6509 17.6482 12.911 23.4988 12.911C29.346 12.9075 34.0894 17.6509 34.0894 23.4981Z" stroke="#2C4227" stroke-width="1.5" stroke-miterlimit="10" stroke-linecap="round" stroke-linejoin="round"/>
<path d="M45.9715 22.7087C45.9579 22.2918 45.9339 21.8783 45.8963 21.4682C28.8708 22.1961 13.53 27.3359 5.77246 37.3387C6.7806 38.627 7.92202 39.8095 9.18304 40.8518C10.4407 41.8907 11.8179 42.7894 13.2805 43.5379C14.7363 44.2829 16.2844 44.8775 17.9043 45.291C19.5276 45.7045 21.2226 45.9369 22.9621 45.9779C23.1398 45.9813 23.3175 45.9916 23.4986 45.9916C25.2244 45.9916 26.9023 45.7899 28.5154 45.4243C30.8085 44.9014 32.9717 44.03 34.9367 42.8646C39.0615 40.4246 42.3422 36.703 44.2252 32.2501C44.6422 31.2659 44.9873 30.2441 45.2641 29.195C45.4384 28.5252 45.5819 27.8383 45.6947 27.1445C45.7836 26.5977 45.8519 26.0441 45.8998 25.4836C45.9408 25.0018 45.9681 24.5165 45.9784 24.0278C45.9818 23.8501 45.992 23.6758 45.992 23.4981C45.992 23.235 45.9818 22.9718 45.9715 22.7087Z" fill="#7BAB47"/>
<path d="M45.3017 25.0565C45.0078 26.191 44.6319 27.2915 44.1842 28.3509C42.1543 33.1557 38.6173 37.1644 34.1712 39.7958C32.049 41.0534 29.7217 41.9932 27.2475 42.5536C25.508 42.9501 23.7002 43.1654 21.8377 43.1654C21.6429 43.1654 21.4516 43.1551 21.2602 43.1517C19.3806 43.1073 17.5557 42.8578 15.806 42.4101C14.0597 41.9624 12.392 41.32 10.8234 40.5203C9.24456 39.7138 7.7614 38.7432 6.40468 37.6257C6.23381 37.4822 6.06636 37.3318 5.89891 37.1849C5.8579 37.2361 5.81347 37.2874 5.77246 37.3421C6.7806 38.6304 7.92202 39.8129 9.18304 40.8552C10.4407 41.8941 11.8179 42.7929 13.2805 43.5413C14.7363 44.2863 16.2844 44.8809 17.9043 45.2944C19.5276 45.7079 21.2226 45.9403 22.9621 45.9813C23.1398 45.9847 23.3175 45.995 23.4986 45.995C25.2244 45.995 26.9023 45.7933 28.5154 45.4277C30.8085 44.9048 32.9717 44.0334 34.9367 42.868C39.0615 40.428 42.3422 36.7064 44.2252 32.2535C44.6422 31.2693 44.9873 30.2475 45.2641 29.1984C45.4384 28.5286 45.5819 27.8417 45.6947 27.1479C45.7836 26.6011 45.8519 26.0475 45.8998 25.4871C45.9408 25.0052 45.9681 24.5199 45.9784 24.0312C45.9818 23.8535 45.992 23.6792 45.992 23.5015C45.992 23.2384 45.9818 22.9753 45.9715 22.7121C45.9613 22.3943 45.9374 22.0799 45.9134 21.7621C45.8724 22.1277 45.8246 22.49 45.7665 22.8488C45.6435 23.5938 45.4897 24.332 45.3017 25.0565Z" fill="#A0C73A"/>
<path d="M44.2251 32.2467C40.4317 35.401 37.2399 39.1909 34.9365 42.8612C39.0613 40.4212 42.3421 36.703 44.2251 32.2467Z" stroke="#2C4227" stroke-width="1.5412" stroke-miterlimit="10" stroke-linecap="round" stroke-linejoin="round"/>
<path d="M45.9 25.4837C45.941 25.0018 45.9683 24.5165 45.9786 24.0278C31.0582 26.6832 18.3044 34.0067 13.2808 43.5344C14.7366 44.2794 16.2847 44.8741 17.9045 45.2876C21.9849 36.8192 32.8421 29.0138 45.9 25.4837Z" stroke="#2C4227" stroke-width="1.5412" stroke-miterlimit="10" stroke-linecap="round" stroke-linejoin="round"/>
<path d="M45.9784 24.0278C45.9818 23.8501 45.9921 23.6758 45.9921 23.4981C45.9921 23.235 45.9818 22.9719 45.9716 22.7087C29.7389 24.3969 15.4814 30.7567 9.18311 40.8484C10.4407 41.8873 11.8179 42.786 13.2806 43.5344C18.3042 34.0067 31.058 26.6832 45.9784 24.0278Z" stroke="#2C4227" stroke-width="1.2" stroke-miterlimit="10" stroke-linecap="round" stroke-linejoin="round"/>
<path d="M45.9715 22.7087C45.9579 22.2918 45.9339 21.8783 45.8963 21.4682C28.8708 22.1961 13.53 27.3359 5.77246 37.3387C6.7806 38.627 7.92202 39.8095 9.18304 40.8518C15.4813 30.7567 29.7388 24.3935 45.9715 22.7087Z" stroke="#2C4227" stroke-width="1.2" stroke-miterlimit="10" stroke-linecap="round" stroke-linejoin="round"/>
<path d="M44.225 32.2467C44.6419 31.2625 44.9871 30.2407 45.2639 29.1915C37.7422 33.3915 31.6592 39.6967 28.5151 45.4209C30.8082 44.898 32.9714 44.0265 34.9365 42.8612C37.2398 39.1909 40.4317 35.4044 44.225 32.2467Z" stroke="#2C4227" stroke-width="1.2" stroke-miterlimit="10" stroke-linecap="round" stroke-linejoin="round"/>
<path d="M45.264 29.1916C45.4383 28.5217 45.5818 27.8348 45.6946 27.1411C35.1074 31.2796 26.4921 38.8252 22.9653 45.9745C23.143 45.9779 23.3207 45.9882 23.5019 45.9882C25.2277 45.9882 26.9056 45.7865 28.5186 45.4209C31.6592 39.7001 37.7422 33.395 45.264 29.1916Z" stroke="#2C4227" stroke-width="1.2" stroke-miterlimit="10" stroke-linecap="round" stroke-linejoin="round"/>
<path d="M45.6947 27.1445C45.7836 26.5977 45.8519 26.0441 45.8998 25.4837C32.8418 29.0173 21.9847 36.8226 17.9043 45.291C19.5276 45.7045 21.2226 45.9369 22.9621 45.9779C26.4923 38.8287 35.1076 31.283 45.6947 27.1445Z" stroke="#2C4227" stroke-width="1.2" stroke-miterlimit="10" stroke-linecap="round" stroke-linejoin="round"/>
<path d="M1.00537 23.4674C1.00537 23.4776 1.00537 23.4879 1.00537 23.4981C1.00537 23.8262 1.01562 24.1509 1.02929 24.4721C1.04638 24.8275 1.0703 25.1829 1.10106 25.5349C1.13523 25.9211 1.17966 26.3072 1.23434 26.6866C1.29585 27.124 1.36762 27.558 1.45305 27.9852C1.55899 28.5149 1.69227 29.0343 1.8358 29.547C2.03743 30.2783 2.27665 30.9925 2.55004 31.6897C4.57315 36.8602 8.45192 41.0944 13.373 43.5789C15.0988 44.4503 16.9476 45.1099 18.8921 45.5131C20.3787 45.8241 21.92 45.9882 23.4988 45.9882C23.6116 45.9882 23.7209 45.9813 23.8337 45.9813C30.1593 45.889 35.8528 43.1859 39.8819 38.9004C32.9309 28.7746 17.7268 23.7989 1.00537 23.4674Z" fill="#A0C73A"/>
<path d="M26.1849 42.8646C24.3668 42.8646 22.5898 42.6767 20.8776 42.3178C18.6392 41.8531 16.5068 41.091 14.5178 40.0897C8.85176 37.2259 4.38178 32.3458 2.0511 26.3927C1.7367 25.5896 1.45989 24.766 1.2275 23.9253C1.18649 23.7749 1.1489 23.6212 1.10789 23.4708C1.07372 23.4708 1.03955 23.4674 1.00537 23.4674C1.00537 23.4776 1.00537 23.4879 1.00537 23.4981C1.00537 23.8262 1.01562 24.1509 1.02929 24.4721C1.04638 24.8275 1.0703 25.1829 1.10106 25.5349C1.13523 25.9211 1.17966 26.3072 1.23434 26.6866C1.29585 27.124 1.36762 27.558 1.45305 27.9852C1.55899 28.5149 1.69227 29.0343 1.8358 29.547C2.03743 30.2783 2.27665 30.9925 2.55004 31.6897C4.57315 36.8602 8.45192 41.0944 13.373 43.5789C15.0988 44.4503 16.9476 45.1099 18.8921 45.5131C20.3787 45.8241 21.92 45.9882 23.4988 45.9882C23.6116 45.9882 23.7209 45.9813 23.8337 45.9813C30.1149 45.889 35.7673 43.2235 39.793 38.9893C35.9416 41.3746 31.4204 42.7826 26.5711 42.8544C26.4446 42.8578 26.3148 42.8646 26.1849 42.8646Z" fill="#D0DB58"/>
<path d="M1.83594 29.5504C2.03757 30.2817 2.27678 30.9959 2.55018 31.6931C7.12952 34.9909 10.916 39.4165 13.3731 43.5823C15.0989 44.4537 16.9478 45.1133 18.8923 45.5165C15.9191 39.8197 9.60714 33.3779 1.83594 29.5504Z" stroke="#2C4227" stroke-width="1.5412" stroke-miterlimit="10" stroke-linecap="round" stroke-linejoin="round"/>
<path d="M2.5498 31.6897C4.57292 36.8602 8.45168 41.0944 13.3728 43.5789C10.9156 39.4164 7.12914 34.9909 2.5498 31.6897Z" stroke="#2C4227" stroke-width="1.2" stroke-miterlimit="10" stroke-linecap="round" stroke-linejoin="round"/>
<path d="M1.45654 27.9886C1.56248 28.5183 1.69576 29.0378 1.83929 29.5504C9.6105 33.3813 15.9225 39.8197 18.8956 45.5165C20.3822 45.8275 21.9235 45.9916 23.5023 45.9916C23.6151 45.9916 23.7244 45.9847 23.8372 45.9847C20.6214 39.044 11.9788 31.594 1.45654 27.9886Z" stroke="#2C4227" stroke-width="1.2" stroke-miterlimit="10" stroke-linecap="round" stroke-linejoin="round"/>
<path d="M1.02929 24.4721C1.01562 24.1509 1.00537 23.8262 1.00537 23.4981C1.00537 23.4879 1.00537 23.4776 1.00537 23.4674C17.7268 23.7989 32.9309 28.7746 39.8819 38.9004C35.8528 43.1859 30.1593 45.889 23.8337 45.9813C20.6179 39.044 11.9787 31.594 1.45305 27.9852C1.36762 27.558 1.29585 27.124 1.23434 26.6866M1.02929 24.4721C16.7528 25.6955 30.7266 31.7444 36.4064 41.5899C30.7301 31.7444 16.7528 25.6955 1.02929 24.4721ZM1.02929 24.4721C1.04638 24.8275 1.0703 25.1829 1.10106 25.5349M1.10106 25.5349C15.3517 27.6366 27.7125 34.4612 32.3909 43.4661C27.7125 34.4578 15.3551 27.6332 1.10106 25.5349ZM1.10106 25.5349C1.13523 25.9211 1.17966 26.3072 1.23434 26.6866M1.23434 26.6866C13.9676 29.6529 24.6881 37.1917 28.372 45.3423" stroke="#2C4227" stroke-width="1.2" stroke-miterlimit="10" stroke-linecap="round" stroke-linejoin="round"/>
<path d="M44.4954 31.5729C48.9539 19.9775 43.1683 6.96317 31.5729 2.50463C19.9775 -1.95391 6.96317 3.83168 2.50463 15.4271C-1.95391 27.0225 3.83168 40.0368 15.4271 44.4954C27.0225 48.9539 40.0368 43.1683 44.4954 31.5729Z" stroke="#2C4227" stroke-width="1.5" stroke-miterlimit="10" stroke-linecap="round" stroke-linejoin="round"/>
</svg>
